<svg version="1.2" xmlns="http://www.w3.org/2000/svg" viewBox="0 0 170 52" width="170" height="52">
	<title>logo_pikkopay-svg</title>
	<defs>
		<clipPath clipPathUnits="userSpaceOnUse" id="cp1">
			<path d="m1.27 11.39h12.39v12.52h-12.39z"/>
		</clipPath>
		<linearGradient id="g1" x2="1" gradientUnits="userSpaceOnUse" gradientTransform="matrix(0,12.123,-12.124,0,7.366,11.693)">
			<stop offset="0" stop-color="#c4eeb9"/>
			<stop offset=".594" stop-color="#45ab9b"/>
		</linearGradient>
		<clipPath clipPathUnits="userSpaceOnUse" id="cp2">
			<path d="m10.24 0h8.98v17.38h-8.98z"/>
		</clipPath>
		<linearGradient id="g2" x2="1" gradientUnits="userSpaceOnUse" gradientTransform="matrix(0,17.074,-8.494,0,14.784,.09)">
			<stop offset="0" stop-color="#c4eeb9"/>
			<stop offset=".594" stop-color="#45ab9b"/>
		</linearGradient>
		<clipPath clipPathUnits="userSpaceOnUse" id="cp3">
			<path d="m16.23 11.39h12.38v12.52h-12.38z"/>
		</clipPath>
		<linearGradient id="g3" x2="1" gradientUnits="userSpaceOnUse" gradientTransform="matrix(0,12.123,-12.126,0,22.507,11.693)">
			<stop offset="0" stop-color="#c4eeb9"/>
			<stop offset=".594" stop-color="#45ab9b"/>
		</linearGradient>
		<clipPath clipPathUnits="userSpaceOnUse" id="cp4">
			<path d="m0.42 18.51h29.05v33.49h-29.05z"/>
		</clipPath>
		<clipPath clipPathUnits="userSpaceOnUse" id="cp5">
			<path d="m10.03 18.53h9.83q0.15 0 0.29 0.01 0 0 0 0v33.46h-12.63c-4.07 0-7.16-3.33-6.86-7.38l1.38-18.69c0.29-4.06 3.87-7.39 7.94-7.39h0.05zm12.29 33.47c4.07 0 7.16-3.33 6.86-7.4l-1.38-18.68c-0.29-3.96-3.7-7.23-7.65-7.39v33.47z"/>
		</clipPath>
		<clipPath clipPathUnits="userSpaceOnUse" id="cp6">
			<path d="m0 17.66h13.01v13.03h-13.01z"/>
		</clipPath>
		<clipPath clipPathUnits="userSpaceOnUse" id="cp7">
			<path d="m6.5 17.66c-3.59 0-6.5 2.92-6.5 6.52 0 3.59 2.91 6.51 6.5 6.51 3.59 0 6.51-2.92 6.51-6.51 0-3.6-2.92-6.52-6.51-6.52z"/>
		</clipPath>
		<clipPath clipPathUnits="userSpaceOnUse" id="cp8">
			<path d="m2.45 20.11h8.11v8.13h-8.11z"/>
		</clipPath>
		<clipPath clipPathUnits="userSpaceOnUse" id="cp9">
			<path d="m6.5 20.11c-2.24 0-4.05 1.82-4.05 4.07 0 2.24 1.81 4.06 4.05 4.06 2.24 0 4.06-1.82 4.06-4.06 0-2.25-1.82-4.07-4.06-4.07z"/>
		</clipPath>
		<clipPath clipPathUnits="userSpaceOnUse" id="cp10">
			<path d="m6.05 21.5h3.12v3.13h-3.12z"/>
		</clipPath>
		<clipPath clipPathUnits="userSpaceOnUse" id="cp11">
			<path d="m7.61 21.5c-0.86 0-1.56 0.7-1.56 1.57 0 0.86 0.7 1.56 1.56 1.56 0.86 0 1.56-0.7 1.56-1.56 0-0.87-0.7-1.57-1.56-1.57z"/>
		</clipPath>
		<clipPath clipPathUnits="userSpaceOnUse" id="cp12">
			<path d="m10.37 34.71h9.21v10.46h-9.21z"/>
		</clipPath>
		<clipPath clipPathUnits="userSpaceOnUse" id="cp13">
			<path d="m10.9 41.68h7.96v5.73h-7.96z"/>
		</clipPath>
		<clipPath clipPathUnits="userSpaceOnUse" id="cp14">
			<path d="m16.84 17.66h13.01v13.03h-13.01z"/>
		</clipPath>
		<clipPath clipPathUnits="userSpaceOnUse" id="cp15">
			<path d="m23.34 17.66c-3.59 0-6.5 2.92-6.5 6.52 0 3.59 2.91 6.51 6.5 6.51 3.59 0 6.51-2.92 6.51-6.51 0-3.6-2.92-6.52-6.51-6.52z"/>
		</clipPath>
		<clipPath clipPathUnits="userSpaceOnUse" id="cp16">
			<path d="m19.29 20.11h8.11v8.13h-8.11z"/>
		</clipPath>
		<clipPath clipPathUnits="userSpaceOnUse" id="cp17">
			<path d="m23.34 20.11c-2.24 0-4.05 1.82-4.05 4.07 0 2.24 1.81 4.06 4.05 4.06 2.24 0 4.06-1.82 4.06-4.06 0-2.25-1.82-4.07-4.06-4.07z"/>
		</clipPath>
		<clipPath clipPathUnits="userSpaceOnUse" id="cp18">
			<path d="m23.02 21.5h3.12v3.13h-3.12z"/>
		</clipPath>
		<clipPath clipPathUnits="userSpaceOnUse" id="cp19">
			<path d="m24.58 21.5c-0.86 0-1.56 0.7-1.56 1.57 0 0.86 0.7 1.56 1.56 1.56 0.86 0 1.56-0.7 1.56-1.56 0-0.87-0.7-1.57-1.56-1.57z"/>
		</clipPath>
	</defs>
	<style>
		.s0 { fill: #ffffff } 
		.s1 { fill: #fff0af } 
		.s2 { fill: #71b261 } 
		.s3 { fill: url(#g1) } 
		.s4 { fill: url(#g2) } 
		.s5 { fill: url(#g3) } 
		.s6 { fill: #ffde59 } 
		.s7 { fill: #3d1f1e } 
		.s8 { fill: #fa5b5b } 
	</style>
	<path id="Layer" fill-rule="evenodd" class="s0" d="m57.8 27.7q0 1.5-0.8 2.9-0.7 1.4-2.3 2.2-1.6 0.9-4 0.9h-3.3v7.5h-3.9v-19.6h7.2q2.3 0 3.9 0.8 1.6 0.8 2.4 2.2 0.8 1.3 0.8 3.1zm-7.3 2.8q1.7 0 2.5-0.7 0.7-0.8 0.7-2.1 0-2.9-3.2-2.9h-3.1v5.7zm12-6.7q-1 0-1.7-0.6-0.7-0.7-0.7-1.7 0-1 0.7-1.6 0.7-0.7 1.7-0.7 1.1 0 1.7 0.7 0.7 0.6 0.7 1.6 0 1-0.7 1.7-0.6 0.6-1.7 0.6zm2 1.8v15.6h-4v-15.6zm13.1 15.6l-5.3-6.6v6.6h-3.9v-20.8h3.9v11.8l5.2-6.6h5.1l-6.8 7.8 6.9 7.8zm16.4 0l-5.3-6.6v6.6h-3.9v-20.8h3.9v11.8l5.2-6.6h5.1l-6.8 7.8 6.8 7.8zm14.1 0.2q-2.2 0-4-1-1.8-1-2.9-2.8-1-1.8-1-4.2 0-2.4 1.1-4.2 1-1.8 2.9-2.8 1.8-1 4-1 2.3 0 4.1 1 1.8 1 2.8 2.8 1.1 1.8 1.1 4.2 0 2.4-1.1 4.2-1.1 1.8-2.9 2.8-1.8 1-4.1 1zm0-3.4q1.1 0 2-0.5 0.9-0.5 1.5-1.6 0.6-1 0.6-2.5 0-2.2-1.2-3.4-1.2-1.2-2.8-1.2-1.7 0-2.9 1.2-1.1 1.2-1.1 3.4 0 2.2 1.1 3.4 1.1 1.2 2.8 1.2z"/>
	<path id="Layer" fill-rule="evenodd" class="s1" d="m133.2 27.7q0 1.5-0.8 2.9-0.7 1.4-2.3 2.2-1.6 0.9-4 0.9h-3.3v7.5h-3.9v-19.6h7.2q2.3 0 3.9 0.8 1.6 0.8 2.3 2.2 0.9 1.3 0.9 3.1zm-7.3 2.8q1.7 0 2.4-0.7 0.8-0.8 0.8-2.1 0-2.9-3.2-2.9h-3.1v5.7zm9 2.8q0-2.3 0.9-4.1 1-1.8 2.6-2.8 1.6-1 3.6-1 1.7 0 3 0.7 1.3 0.7 2.1 1.8v-2.3h4v15.6h-4v-2.3q-0.7 1.1-2.1 1.8-1.3 0.7-3 0.7-2 0-3.6-1-1.6-1-2.6-2.8-0.9-1.9-0.9-4.3zm12.2 0.1q0-1.4-0.5-2.4-0.6-1.1-1.5-1.6-1-0.6-2.1-0.6-1.1 0-2 0.6-0.9 0.5-1.5 1.5-0.6 1-0.6 2.4 0 1.4 0.6 2.5 0.6 1 1.5 1.6 1 0.6 2 0.6 1.1 0 2.1-0.6 0.9-0.5 1.5-1.5 0.5-1.1 0.5-2.5zm22.6-7.8l-9.6 22.9h-4.1l3.3-7.7-6.2-15.2h4.4l4 10.9 4.1-10.9z"/>
	<path id="Layer" class="s2" d="m1.9 12.3c0 0 10.8-0.7 10.9 10.9-11.6-0.1-10.9-10.9-10.9-10.9z"/>
	<g id="Clip-Path" clip-path="url(#cp1)">
		<g id="Layer">
			<path id="Layer" class="s3" d="m13.4 23.8h-0.6c-3.7 0-6.7-1.1-8.7-3.3-3.1-3.3-2.8-8-2.8-8.2l0.1-0.6h0.5q0 0 0.4 0c1.9 0 11.1 0.5 11.1 11.5z"/>
		</g>
	</g>
	<g id="Clip-Path" clip-path="url(#cp2)">
		<g id="Layer">
			<path id="Layer" class="s4" d="m14.8 17.2l-0.5-0.5c-2.6-2.6-3.9-5.5-3.8-8.4 0.2-4.6 3.7-7.7 3.9-7.9l0.4-0.3 0.4 0.3c0.1 0.2 3.7 3.3 3.8 7.9 0.1 2.9-1.1 5.8-3.8 8.4z"/>
		</g>
	</g>
	<path id="Layer" class="s2" d="m27.9 12.3c0 0-10.7-0.7-10.8 10.9 11.6-0.1 10.8-10.9 10.8-10.9z"/>
	<g id="Clip-Path" clip-path="url(#cp3)">
		<g id="Layer">
			<path id="Layer" class="s5" d="m16.4 23.8v-0.6c0.1-11 9.3-11.5 11.2-11.5q0.4 0 0.4 0h0.5l0.1 0.6c0 0.2 0.3 4.9-2.9 8.2-2 2.2-4.9 3.3-8.6 3.3z"/>
		</g>
	</g>
	<g id="Clip-Path" clip-path="url(#cp4)">
		<g id="Layer">
			<g id="Clip-Path" clip-path="url(#cp5)">
				<g id="Layer">
					<path id="Layer" class="s6" d="m29.2 52h-28.5v-33.5h28.5z"/>
				</g>
			</g>
		</g>
	</g>
	<g id="Clip-Path" clip-path="url(#cp6)">
		<g id="Layer">
			<g id="Clip-Path" clip-path="url(#cp7)">
				<g id="Layer">
					<path id="Layer" class="s0" d="m0 17.7h13v13h-13z"/>
				</g>
			</g>
		</g>
	</g>
	<g id="Clip-Path" clip-path="url(#cp8)">
		<g id="Layer">
			<g id="Clip-Path" clip-path="url(#cp9)">
				<g id="Layer">
					<path id="Layer" class="s7" d="m2.4 20.1h8.2v8.1h-8.2z"/>
				</g>
			</g>
		</g>
	</g>
	<g id="Clip-Path" clip-path="url(#cp10)">
		<g id="Layer">
			<g id="Clip-Path" clip-path="url(#cp11)">
				<g id="Layer">
					<path id="Layer" class="s0" d="m6 21.5h3.2v3.1h-3.2z"/>
				</g>
			</g>
		</g>
	</g>
	<g id="Clip-Path" clip-path="url(#cp12)">
		<g id="Layer">
			<path id="Layer" class="s7" d="m15 47.9q-0.5 0-0.9-0.1-0.5-0.1-0.9-0.4-0.4-0.2-0.8-0.6-0.4-0.4-0.7-0.8-0.3-0.5-0.5-1-0.3-0.6-0.5-1.2-0.1-0.6-0.2-1.2-0.1-0.6-0.1-1.3 0-0.6 0.1-1.3 0.1-0.6 0.2-1.2 0.2-0.6 0.5-1.2 0.2-0.5 0.5-1 0.3-0.4 0.7-0.8 0.4-0.3 0.8-0.6 0.4-0.2 0.9-0.4 0.4-0.1 0.9-0.1 0.4 0 0.9 0.1 0.4 0.2 0.8 0.4 0.5 0.3 0.8 0.6 0.4 0.4 0.7 0.8 0.3 0.5 0.6 1 0.2 0.6 0.4 1.2 0.2 0.6 0.3 1.2 0.1 0.7 0.1 1.3 0 0.7-0.1 1.3-0.1 0.6-0.3 1.2-0.2 0.6-0.4 1.2-0.3 0.5-0.6 1-0.3 0.4-0.7 0.8-0.3 0.4-0.8 0.6-0.4 0.3-0.8 0.4-0.5 0.1-0.9 0.1z"/>
		</g>
	</g>
	<g id="Clip-Path" clip-path="url(#cp13)">
		<g id="Layer">
			<path id="Layer" class="s8" d="m18.9 44.5q0 0.3-0.1 0.6-0.1 0.3-0.2 0.5-0.2 0.3-0.4 0.5-0.2 0.3-0.5 0.5-0.3 0.2-0.6 0.3-0.3 0.2-0.7 0.3-0.4 0.1-0.7 0.1-0.4 0.1-0.8 0.1-0.4 0-0.8-0.1-0.4 0-0.7-0.1-0.4-0.1-0.7-0.3-0.4-0.1-0.6-0.3-0.3-0.2-0.5-0.5-0.2-0.2-0.4-0.5-0.1-0.2-0.2-0.5-0.1-0.3-0.1-0.6 0-0.2 0.1-0.5 0.1-0.3 0.2-0.6 0.2-0.2 0.4-0.4 0.2-0.3 0.5-0.5 0.2-0.2 0.6-0.3 0.3-0.2 0.7-0.3 0.3-0.1 0.7-0.2 0.4 0 0.8 0 0.4 0 0.8 0 0.3 0.1 0.7 0.2 0.4 0.1 0.7 0.3 0.3 0.1 0.6 0.3 0.3 0.2 0.5 0.5 0.2 0.2 0.4 0.4 0.1 0.3 0.2 0.6 0.1 0.3 0.1 0.5z"/>
		</g>
	</g>
	<g id="Clip-Path" clip-path="url(#cp14)">
		<g id="Layer">
			<g id="Clip-Path" clip-path="url(#cp15)">
				<g id="Layer">
					<path id="Layer" class="s0" d="m16.8 17.7h13v13h-13z"/>
				</g>
			</g>
		</g>
	</g>
	<g id="Clip-Path" clip-path="url(#cp16)">
		<g id="Layer">
			<g id="Clip-Path" clip-path="url(#cp17)">
				<g id="Layer">
					<path id="Layer" class="s7" d="m19.3 20.1h8.1v8.1h-8.1z"/>
				</g>
			</g>
		</g>
	</g>
	<g id="Clip-Path" clip-path="url(#cp18)">
		<g id="Layer">
			<g id="Clip-Path" clip-path="url(#cp19)">
				<g id="Layer">
					<path id="Layer" class="s0" d="m23 21.5h3.1v3.1h-3.1z"/>
				</g>
			</g>
		</g>
	</g>
</svg>